<svg width="16" height="13" xmlns="http://www.w3.org/2000/svg"><g fill-rule="nonzero" fill="#272727"><path d="M11.922 5.703a2.5 2.5 0 0 0-1.43-2.256A2.5 2.5 0 0 0 8 1.067a2.5 2.5 0 0 0-2.493 2.38 2.5 2.5 0 0 0-1.43 2.256A2.5 2.5 0 0 0 5.6 8.002l2.08 4.276a.357.357 0 0 0 .64 0l2.08-4.276a2.5 2.5 0 0 0 1.523-2.299h-.001zM9.426 7.486H6.573c-.983 0-1.783-.8-1.783-1.783a1.785 1.785 0 0 1 2.377-1.681.356.356 0 1 0 .238-.673 2.495 2.495 0 0 0-1.157-.12 1.786 1.786 0 0 1 1.75-1.448 1.784 1.784 0 0 1 1.33 2.972.356.356 0 1 0 .53.475c.262-.293.45-.64.55-1.012.49.325.8.88.8 1.487 0 .983-.8 1.783-1.784 1.783h.002z"/><path d="M3.783 1.48a5.977 5.977 0 0 0 0 8.453l.686-.685a5.008 5.008 0 0 1 0-7.082l-.686-.686zm8.453 8.453a5.977 5.977 0 0 0 0-8.453l-.685.686a5.008 5.008 0 0 1 0 7.082l.685.685z"/><path d="M2.382.08a7.939 7.939 0 0 0 0 11.227l.686-.686a6.97 6.97 0 0 1 0-9.856L2.382.08zM13.61 11.306c3.1-3.1 3.1-8.127 0-11.228l-.686.686a6.97 6.97 0 0 1 0 9.856l.686.686z"/></g></svg>