<?xml version="1.0" encoding="UTF-8"?>
<svg width="16px" height="13px" viewBox="0 0 16 13" version="1.1" xmlns="http://www.w3.org/2000/svg" xmlns:xlink="http://www.w3.org/1999/xlink">
    <!-- Generator: Sketch 43.2 (39069) - http://www.bohemiancoding.com/sketch -->
    <title>Icon</title>
    <desc>Created with Sketch.</desc>
    <defs></defs>
    <g id="icon" stroke="none" stroke-width="1" fill="none" fill-rule="evenodd">
        <g id="Favicon" transform="translate(-10.000000, -24.000000)" fill-rule="nonzero" fill="#272727">
            <g id="Icon" transform="translate(10.000000, 24.000000)">
                <g id="icecream" transform="translate(4.076840, 1.067641)">
                    <path d="M7.844894,4.63561918 C7.844894,3.66499184 7.28006163,2.78779006 6.41569695,2.3791424 C6.35436414,1.05692117 5.25964484,0 3.922447,0 C2.58524916,0 1.49052986,1.05692117 1.42919705,2.3791424 C0.584801189,2.77994517 0,3.64074399 0,4.63561918 C0,5.66686616 0.629017865,6.55405235 1.52333578,6.93417313 L3.60223269,11.2103535 C3.66213915,11.3330191 3.78623111,11.4107549 3.92316017,11.4107549 C4.06008923,11.4107549 4.18418119,11.3330191 4.24408766,11.2103535 L6.32298457,6.93417313 C7.21730248,6.55405235 7.84632035,5.66686616 7.84632035,4.63561918 L7.844894,4.63561918 Z M5.34879136,6.41854964 L2.49610264,6.41854964 C1.51335137,6.41854964 0.713172182,5.61837045 0.713172182,4.63561918 C0.713172182,3.65286792 1.51335137,2.85268873 2.49610264,2.85268873 C2.70006988,2.85268873 2.90047126,2.88692099 3.09017506,2.95395918 C3.27559983,3.01957102 3.47956708,2.9225796 3.54517892,2.73644166 C3.61079076,2.55030372 3.51379934,2.34704965 3.3276614,2.28143781 C3.06093501,2.18729908 2.78065834,2.13951655 2.49538946,2.13951655 C2.38556095,2.13951655 2.27715878,2.14664827 2.17089612,2.16091171 C2.32850717,1.33791101 3.05309011,0.713172182 3.92173383,0.713172182 C4.90519827,0.713172182 5.70466428,1.5126382 5.70466428,2.49610264 C5.70466428,2.9354167 5.54348737,3.35761463 5.2503736,3.68496066 C5.11914992,3.83187413 5.13127385,4.05723654 5.27818732,4.18846022 C5.34593868,4.24907986 5.43151934,4.27903309 5.51567366,4.27903309 C5.61337824,4.27903309 5.71108283,4.23909545 5.78168688,4.15993334 C6.04342107,3.86753274 6.23027218,3.52021789 6.33082946,3.14794201 C6.82149192,3.47314853 7.13029548,4.02870966 7.13029548,4.63561918 C7.13029548,5.61837045 6.33082946,6.41854964 5.34736502,6.41854964 L5.34879136,6.41854964 Z" id="Shape"></path>
                </g>
                <path d="M3.78331502,1.48028471 C1.44904482,3.81455491 1.44904482,7.59915467 3.78331502,9.93342487 L4.46899432,9.24774557 C2.51341434,7.29216559 2.51341434,4.12154399 4.46899432,2.16596402 L3.78331502,1.48028471 Z M12.2364552,9.93342487 C14.5707254,7.59915467 14.5707254,3.81455491 12.2364552,1.48028471 L11.5507759,2.16596402 C13.5063558,4.12154399 13.5063558,7.29216559 11.5507759,9.24774557 L12.2364552,9.93342487 Z" id="Oval"></path>
                <path d="M2.38248281,0.0794525081 C-0.717832061,3.17976738 -0.717832061,8.20637095 2.38248281,11.3066858 L3.06816211,10.6210065 C0.346537464,7.89938187 0.346537464,3.48675646 3.06816211,0.765131811 L2.38248281,0.0794525081 Z M13.6097161,11.3066858 C16.710031,8.20637095 16.710031,3.17976738 13.6097161,0.0794525081 L12.9240368,0.765131811 C15.6456615,3.48675646 15.6456615,7.89938187 12.9240368,10.6210065 L13.6097161,11.3066858 Z" id="Oval"></path>
            </g>
        </g>
    </g>
</svg>